<mxfile host="65bd71144e">
    <diagram id="fsLFLNWuwQOVphlXHDtW" name="Page-1">
        <mxGraphModel dx="870" dy="796" grid="0" gridSize="10" guides="1" tooltips="1" connect="1" arrows="1" fold="1" page="0" pageScale="1" pageWidth="827" pageHeight="1169" math="0" shadow="0">
            <root>
                <mxCell id="0"/>
                <mxCell id="1" parent="0"/>
                <mxCell id="28xpgW_beIzhv5y29o_W-211" value="" style="rounded=0;whiteSpace=wrap;html=1;shadow=0;glass=0;sketch=0;strokeWidth=1;" parent="1" vertex="1">
                    <mxGeometry x="-288.5" y="2257" width="82.5" height="46" as="geometry"/>
                </mxCell>
                <mxCell id="28xpgW_beIzhv5y29o_W-210" value="" style="rounded=0;whiteSpace=wrap;html=1;shadow=0;glass=0;sketch=0;strokeWidth=1;" parent="1" vertex="1">
                    <mxGeometry x="-288.5" y="2138" width="81.5" height="119" as="geometry"/>
                </mxCell>
                <mxCell id="28xpgW_beIzhv5y29o_W-209" value="" style="rounded=0;whiteSpace=wrap;html=1;shadow=0;glass=0;sketch=0;strokeWidth=1;" parent="1" vertex="1">
                    <mxGeometry x="-288" y="2028" width="80" height="110" as="geometry"/>
                </mxCell>
                <mxCell id="28xpgW_beIzhv5y29o_W-208" style="edgeStyle=none;rounded=0;sketch=1;orthogonalLoop=1;jettySize=auto;html=1;" parent="1" source="28xpgW_beIzhv5y29o_W-207" target="28xpgW_beIzhv5y29o_W-206" edge="1">
                    <mxGeometry relative="1" as="geometry"/>
                </mxCell>
                <mxCell id="28xpgW_beIzhv5y29o_W-207" value="kafka producer" style="rounded=0;whiteSpace=wrap;html=1;shadow=0;glass=0;sketch=0;strokeWidth=1;" parent="1" vertex="1">
                    <mxGeometry x="-198" y="2038" width="103" height="263" as="geometry"/>
                </mxCell>
                <mxCell id="28xpgW_beIzhv5y29o_W-31" value="" style="rounded=0;whiteSpace=wrap;html=1;shadow=0;glass=0;sketch=1;strokeWidth=1;fillColor=#fff2cc;strokeColor=#d6b656;" parent="1" vertex="1">
                    <mxGeometry x="-182" y="-134" width="462" height="124" as="geometry"/>
                </mxCell>
                <mxCell id="28xpgW_beIzhv5y29o_W-15" style="edgeStyle=orthogonalEdgeStyle;rounded=0;sketch=1;orthogonalLoop=1;jettySize=auto;html=1;" parent="1" source="28xpgW_beIzhv5y29o_W-13" target="28xpgW_beIzhv5y29o_W-14" edge="1">
                    <mxGeometry relative="1" as="geometry"/>
                </mxCell>
                <mxCell id="28xpgW_beIzhv5y29o_W-13" value="System1- IOT" style="rounded=0;whiteSpace=wrap;html=1;shadow=0;glass=1;sketch=1;strokeWidth=1;" parent="1" vertex="1">
                    <mxGeometry x="-151" y="-207" width="91" height="38" as="geometry"/>
                </mxCell>
                <mxCell id="28xpgW_beIzhv5y29o_W-14" value="System1-1" style="rounded=0;whiteSpace=wrap;html=1;shadow=0;glass=1;sketch=1;strokeWidth=1;" parent="1" vertex="1">
                    <mxGeometry x="-168" y="23" width="91" height="38" as="geometry"/>
                </mxCell>
                <mxCell id="28xpgW_beIzhv5y29o_W-17" style="rounded=0;sketch=1;orthogonalLoop=1;jettySize=auto;html=1;entryX=0.824;entryY=-0.044;entryDx=0;entryDy=0;entryPerimeter=0;" parent="1" source="28xpgW_beIzhv5y29o_W-16" target="28xpgW_beIzhv5y29o_W-14" edge="1">
                    <mxGeometry relative="1" as="geometry"/>
                </mxCell>
                <mxCell id="28xpgW_beIzhv5y29o_W-29" style="edgeStyle=none;rounded=0;sketch=1;orthogonalLoop=1;jettySize=auto;html=1;" parent="1" source="28xpgW_beIzhv5y29o_W-16" target="28xpgW_beIzhv5y29o_W-23" edge="1">
                    <mxGeometry relative="1" as="geometry"/>
                </mxCell>
                <mxCell id="28xpgW_beIzhv5y29o_W-30" style="edgeStyle=none;rounded=0;sketch=1;orthogonalLoop=1;jettySize=auto;html=1;fillColor=#f8cecc;strokeColor=#b85450;" parent="1" source="28xpgW_beIzhv5y29o_W-16" target="28xpgW_beIzhv5y29o_W-24" edge="1">
                    <mxGeometry relative="1" as="geometry"/>
                </mxCell>
                <mxCell id="28xpgW_beIzhv5y29o_W-16" value="System2" style="rounded=0;whiteSpace=wrap;html=1;shadow=0;glass=1;sketch=1;strokeWidth=1;" parent="1" vertex="1">
                    <mxGeometry x="-42" y="-205" width="91" height="38" as="geometry"/>
                </mxCell>
                <mxCell id="28xpgW_beIzhv5y29o_W-20" style="edgeStyle=none;rounded=0;sketch=1;orthogonalLoop=1;jettySize=auto;html=1;" parent="1" source="28xpgW_beIzhv5y29o_W-18" target="28xpgW_beIzhv5y29o_W-19" edge="1">
                    <mxGeometry relative="1" as="geometry"/>
                </mxCell>
                <mxCell id="28xpgW_beIzhv5y29o_W-28" style="edgeStyle=none;rounded=0;sketch=1;orthogonalLoop=1;jettySize=auto;html=1;entryX=0.25;entryY=0;entryDx=0;entryDy=0;fillColor=#f8cecc;strokeColor=#b85450;" parent="1" source="28xpgW_beIzhv5y29o_W-18" target="28xpgW_beIzhv5y29o_W-24" edge="1">
                    <mxGeometry relative="1" as="geometry"/>
                </mxCell>
                <mxCell id="28xpgW_beIzhv5y29o_W-18" value="System3" style="rounded=0;whiteSpace=wrap;html=1;shadow=0;glass=1;sketch=1;strokeWidth=1;" parent="1" vertex="1">
                    <mxGeometry x="67" y="-205" width="91" height="38" as="geometry"/>
                </mxCell>
                <mxCell id="28xpgW_beIzhv5y29o_W-19" value="System 2-1" style="rounded=0;whiteSpace=wrap;html=1;shadow=0;glass=1;sketch=1;strokeWidth=1;" parent="1" vertex="1">
                    <mxGeometry x="-55" y="23" width="91" height="38" as="geometry"/>
                </mxCell>
                <mxCell id="28xpgW_beIzhv5y29o_W-21" value="300000000" style="text;html=1;align=center;verticalAlign=middle;resizable=0;points=[];autosize=1;strokeColor=none;fillColor=none;" parent="1" vertex="1">
                    <mxGeometry x="-14" y="-243" width="70" height="18" as="geometry"/>
                </mxCell>
                <mxCell id="28xpgW_beIzhv5y29o_W-22" value="2000000" style="text;html=1;align=center;verticalAlign=middle;resizable=0;points=[];autosize=1;strokeColor=none;fillColor=none;" parent="1" vertex="1">
                    <mxGeometry x="-100" y="72" width="57" height="18" as="geometry"/>
                </mxCell>
                <mxCell id="28xpgW_beIzhv5y29o_W-23" value="System 2-2" style="rounded=0;whiteSpace=wrap;html=1;shadow=0;glass=1;sketch=1;strokeWidth=1;" parent="1" vertex="1">
                    <mxGeometry x="52" y="23" width="91" height="38" as="geometry"/>
                </mxCell>
                <mxCell id="28xpgW_beIzhv5y29o_W-24" value="System 2-3" style="rounded=0;whiteSpace=wrap;html=1;shadow=0;glass=0;sketch=1;strokeWidth=1;fillColor=#f8cecc;strokeColor=#b85450;" parent="1" vertex="1">
                    <mxGeometry x="162" y="23" width="91" height="38" as="geometry"/>
                </mxCell>
                <mxCell id="28xpgW_beIzhv5y29o_W-26" style="edgeStyle=none;rounded=0;sketch=1;orthogonalLoop=1;jettySize=auto;html=1;fillColor=#f8cecc;strokeColor=#b85450;" parent="1" source="28xpgW_beIzhv5y29o_W-25" target="28xpgW_beIzhv5y29o_W-24" edge="1">
                    <mxGeometry relative="1" as="geometry"/>
                </mxCell>
                <mxCell id="28xpgW_beIzhv5y29o_W-27" style="edgeStyle=none;rounded=0;sketch=1;orthogonalLoop=1;jettySize=auto;html=1;" parent="1" source="28xpgW_beIzhv5y29o_W-25" target="28xpgW_beIzhv5y29o_W-23" edge="1">
                    <mxGeometry relative="1" as="geometry"/>
                </mxCell>
                <mxCell id="28xpgW_beIzhv5y29o_W-25" value="System4" style="rounded=0;whiteSpace=wrap;html=1;shadow=0;glass=1;sketch=1;strokeWidth=1;" parent="1" vertex="1">
                    <mxGeometry x="176" y="-205" width="91" height="38" as="geometry"/>
                </mxCell>
                <mxCell id="28xpgW_beIzhv5y29o_W-73" style="edgeStyle=none;rounded=0;sketch=1;orthogonalLoop=1;jettySize=auto;html=1;" parent="1" source="28xpgW_beIzhv5y29o_W-32" target="28xpgW_beIzhv5y29o_W-71" edge="1">
                    <mxGeometry relative="1" as="geometry"/>
                </mxCell>
                <mxCell id="28xpgW_beIzhv5y29o_W-32" value="System1- IOT" style="rounded=0;whiteSpace=wrap;html=1;shadow=0;glass=1;sketch=1;strokeWidth=1;" parent="1" vertex="1">
                    <mxGeometry x="-172" y="151" width="91" height="38" as="geometry"/>
                </mxCell>
                <mxCell id="28xpgW_beIzhv5y29o_W-84" style="edgeStyle=none;rounded=0;sketch=1;orthogonalLoop=1;jettySize=auto;html=1;" parent="1" source="28xpgW_beIzhv5y29o_W-33" target="28xpgW_beIzhv5y29o_W-40" edge="1">
                    <mxGeometry relative="1" as="geometry"/>
                </mxCell>
                <mxCell id="28xpgW_beIzhv5y29o_W-33" value="System2" style="rounded=0;whiteSpace=wrap;html=1;shadow=0;glass=1;sketch=1;strokeWidth=1;" parent="1" vertex="1">
                    <mxGeometry x="-63" y="153" width="91" height="38" as="geometry"/>
                </mxCell>
                <mxCell id="28xpgW_beIzhv5y29o_W-85" style="edgeStyle=none;rounded=0;sketch=1;orthogonalLoop=1;jettySize=auto;html=1;" parent="1" source="28xpgW_beIzhv5y29o_W-34" target="28xpgW_beIzhv5y29o_W-40" edge="1">
                    <mxGeometry relative="1" as="geometry"/>
                </mxCell>
                <mxCell id="28xpgW_beIzhv5y29o_W-34" value="System3" style="rounded=0;whiteSpace=wrap;html=1;shadow=0;glass=1;sketch=1;strokeWidth=1;" parent="1" vertex="1">
                    <mxGeometry x="46" y="153" width="91" height="38" as="geometry"/>
                </mxCell>
                <mxCell id="28xpgW_beIzhv5y29o_W-35" value="System4" style="rounded=0;whiteSpace=wrap;html=1;shadow=0;glass=1;sketch=1;strokeWidth=1;" parent="1" vertex="1">
                    <mxGeometry x="155" y="153" width="91" height="38" as="geometry"/>
                </mxCell>
                <mxCell id="28xpgW_beIzhv5y29o_W-78" style="edgeStyle=none;rounded=0;sketch=1;orthogonalLoop=1;jettySize=auto;html=1;" parent="1" source="28xpgW_beIzhv5y29o_W-36" target="28xpgW_beIzhv5y29o_W-40" edge="1">
                    <mxGeometry relative="1" as="geometry"/>
                </mxCell>
                <mxCell id="28xpgW_beIzhv5y29o_W-87" style="edgeStyle=none;rounded=0;sketch=1;orthogonalLoop=1;jettySize=auto;html=1;" parent="1" source="28xpgW_beIzhv5y29o_W-36" target="28xpgW_beIzhv5y29o_W-86" edge="1">
                    <mxGeometry relative="1" as="geometry"/>
                </mxCell>
                <mxCell id="28xpgW_beIzhv5y29o_W-36" value="System1-1" style="rounded=0;whiteSpace=wrap;html=1;shadow=0;glass=1;sketch=1;strokeWidth=1;" parent="1" vertex="1">
                    <mxGeometry x="-141" y="370" width="91" height="38" as="geometry"/>
                </mxCell>
                <mxCell id="28xpgW_beIzhv5y29o_W-88" style="edgeStyle=none;rounded=0;sketch=1;orthogonalLoop=1;jettySize=auto;html=1;entryX=0.8;entryY=0.038;entryDx=0;entryDy=0;entryPerimeter=0;" parent="1" source="28xpgW_beIzhv5y29o_W-37" target="28xpgW_beIzhv5y29o_W-86" edge="1">
                    <mxGeometry relative="1" as="geometry"/>
                </mxCell>
                <mxCell id="28xpgW_beIzhv5y29o_W-37" value="System 2-1" style="rounded=0;whiteSpace=wrap;html=1;shadow=0;glass=1;sketch=1;strokeWidth=1;" parent="1" vertex="1">
                    <mxGeometry x="-28" y="370" width="91" height="38" as="geometry"/>
                </mxCell>
                <mxCell id="28xpgW_beIzhv5y29o_W-89" style="edgeStyle=none;rounded=0;sketch=1;orthogonalLoop=1;jettySize=auto;html=1;" parent="1" source="28xpgW_beIzhv5y29o_W-38" target="28xpgW_beIzhv5y29o_W-86" edge="1">
                    <mxGeometry relative="1" as="geometry"/>
                </mxCell>
                <mxCell id="28xpgW_beIzhv5y29o_W-38" value="System 2-2" style="rounded=0;whiteSpace=wrap;html=1;shadow=0;glass=1;sketch=1;strokeWidth=1;" parent="1" vertex="1">
                    <mxGeometry x="79" y="370" width="91" height="38" as="geometry"/>
                </mxCell>
                <mxCell id="28xpgW_beIzhv5y29o_W-39" value="System 2-3" style="rounded=0;whiteSpace=wrap;html=1;shadow=0;glass=0;sketch=1;strokeWidth=1;" parent="1" vertex="1">
                    <mxGeometry x="189" y="370" width="91" height="38" as="geometry"/>
                </mxCell>
                <mxCell id="28xpgW_beIzhv5y29o_W-40" value="&amp;nbsp;ESB - Program&lt;br&gt;Sending Message, Receiving Messages, Keeping Messages(cache - By default the messages are kept for 1 week)&amp;nbsp;" style="rounded=0;whiteSpace=wrap;html=1;shadow=0;glass=0;sketch=1;strokeWidth=1;fillColor=#ffe6cc;strokeColor=#d79b00;" parent="1" vertex="1">
                    <mxGeometry x="-108" y="262" width="320" height="60" as="geometry"/>
                </mxCell>
                <mxCell id="28xpgW_beIzhv5y29o_W-42" value="" style="shape=message;html=1;whiteSpace=wrap;html=1;outlineConnect=0;shadow=0;glass=0;sketch=1;strokeWidth=1;" parent="1" vertex="1">
                    <mxGeometry x="-17.75" y="242" width="27" height="15" as="geometry"/>
                </mxCell>
                <mxCell id="28xpgW_beIzhv5y29o_W-43" value="" style="shape=message;html=1;whiteSpace=wrap;html=1;outlineConnect=0;shadow=0;glass=0;sketch=1;strokeWidth=1;" parent="1" vertex="1">
                    <mxGeometry x="-198" y="666" width="27" height="15" as="geometry"/>
                </mxCell>
                <mxCell id="28xpgW_beIzhv5y29o_W-44" value="" style="rounded=0;whiteSpace=wrap;html=1;shadow=0;glass=0;sketch=1;strokeWidth=1;" parent="1" vertex="1">
                    <mxGeometry x="-165" y="671" width="385" height="327" as="geometry"/>
                </mxCell>
                <mxCell id="28xpgW_beIzhv5y29o_W-45" value="KEY&lt;br&gt;it can be null" style="rounded=0;whiteSpace=wrap;html=1;shadow=0;glass=0;sketch=1;strokeWidth=1;fillColor=#d5e8d4;strokeColor=#82b366;" parent="1" vertex="1">
                    <mxGeometry x="-143.75" y="681" width="160" height="52" as="geometry"/>
                </mxCell>
                <mxCell id="28xpgW_beIzhv5y29o_W-46" value="VALUE&lt;br&gt;it can be null" style="rounded=0;whiteSpace=wrap;html=1;shadow=0;glass=0;sketch=1;strokeWidth=1;fillColor=#d5e8d4;strokeColor=#82b366;" parent="1" vertex="1">
                    <mxGeometry x="31.75" y="681" width="160" height="52" as="geometry"/>
                </mxCell>
                <mxCell id="28xpgW_beIzhv5y29o_W-47" value="actuals, or zip -compression mechanism, gzip, snappy, zstd...&amp;nbsp;" style="rounded=0;whiteSpace=wrap;html=1;shadow=0;glass=0;sketch=1;strokeWidth=1;" parent="1" vertex="1">
                    <mxGeometry x="-148" y="741" width="344" height="47" as="geometry"/>
                </mxCell>
                <mxCell id="28xpgW_beIzhv5y29o_W-48" value="" style="rounded=0;whiteSpace=wrap;html=1;shadow=0;glass=0;sketch=1;strokeWidth=1;" parent="1" vertex="1">
                    <mxGeometry x="-148" y="800" width="344" height="100" as="geometry"/>
                </mxCell>
                <mxCell id="28xpgW_beIzhv5y29o_W-49" value="" style="shape=table;html=1;whiteSpace=wrap;startSize=0;container=1;collapsible=0;childLayout=tableLayout;shadow=0;glass=0;sketch=1;strokeWidth=1;" parent="1" vertex="1">
                    <mxGeometry x="-78.5" y="817" width="205" height="55" as="geometry"/>
                </mxCell>
                <mxCell id="28xpgW_beIzhv5y29o_W-50" value="" style="shape=tableRow;horizontal=0;startSize=0;swimlaneHead=0;swimlaneBody=0;top=0;left=0;bottom=0;right=0;collapsible=0;dropTarget=0;fillColor=none;points=[[0,0.5],[1,0.5]];portConstraint=eastwest;shadow=0;glass=0;sketch=1;strokeWidth=1;" parent="28xpgW_beIzhv5y29o_W-49" vertex="1">
                    <mxGeometry width="205" height="28" as="geometry"/>
                </mxCell>
                <mxCell id="28xpgW_beIzhv5y29o_W-51" value="key" style="shape=partialRectangle;html=1;whiteSpace=wrap;connectable=0;fillColor=none;top=0;left=0;bottom=0;right=0;overflow=hidden;shadow=0;glass=0;sketch=1;strokeWidth=1;" parent="28xpgW_beIzhv5y29o_W-50" vertex="1">
                    <mxGeometry width="102" height="28" as="geometry">
                        <mxRectangle width="102" height="28" as="alternateBounds"/>
                    </mxGeometry>
                </mxCell>
                <mxCell id="28xpgW_beIzhv5y29o_W-52" value="value" style="shape=partialRectangle;html=1;whiteSpace=wrap;connectable=0;fillColor=none;top=0;left=0;bottom=0;right=0;overflow=hidden;shadow=0;glass=0;sketch=1;strokeWidth=1;" parent="28xpgW_beIzhv5y29o_W-50" vertex="1">
                    <mxGeometry x="102" width="103" height="28" as="geometry">
                        <mxRectangle width="103" height="28" as="alternateBounds"/>
                    </mxGeometry>
                </mxCell>
                <mxCell id="28xpgW_beIzhv5y29o_W-54" value="" style="shape=tableRow;horizontal=0;startSize=0;swimlaneHead=0;swimlaneBody=0;top=0;left=0;bottom=0;right=0;collapsible=0;dropTarget=0;fillColor=none;points=[[0,0.5],[1,0.5]];portConstraint=eastwest;shadow=0;glass=0;sketch=1;strokeWidth=1;" parent="28xpgW_beIzhv5y29o_W-49" vertex="1">
                    <mxGeometry y="28" width="205" height="27" as="geometry"/>
                </mxCell>
                <mxCell id="28xpgW_beIzhv5y29o_W-55" value="key" style="shape=partialRectangle;html=1;whiteSpace=wrap;connectable=0;fillColor=none;top=0;left=0;bottom=0;right=0;overflow=hidden;shadow=0;glass=0;sketch=1;strokeWidth=1;" parent="28xpgW_beIzhv5y29o_W-54" vertex="1">
                    <mxGeometry width="102" height="27" as="geometry">
                        <mxRectangle width="102" height="27" as="alternateBounds"/>
                    </mxGeometry>
                </mxCell>
                <mxCell id="28xpgW_beIzhv5y29o_W-56" value="value" style="shape=partialRectangle;html=1;whiteSpace=wrap;connectable=0;fillColor=none;top=0;left=0;bottom=0;right=0;overflow=hidden;shadow=0;glass=0;sketch=1;strokeWidth=1;" parent="28xpgW_beIzhv5y29o_W-54" vertex="1">
                    <mxGeometry x="102" width="103" height="27" as="geometry">
                        <mxRectangle width="103" height="27" as="alternateBounds"/>
                    </mxGeometry>
                </mxCell>
                <mxCell id="28xpgW_beIzhv5y29o_W-62" value="Ritika:1234&lt;br&gt;Kavia:3344&lt;br&gt;Priyanka:2211" style="text;html=1;align=center;verticalAlign=middle;resizable=0;points=[];autosize=1;strokeColor=none;fillColor=none;" parent="1" vertex="1">
                    <mxGeometry x="233" y="681" width="86" height="46" as="geometry"/>
                </mxCell>
                <mxCell id="28xpgW_beIzhv5y29o_W-63" value="ency:md5&lt;br&gt;pub:1234" style="text;html=1;align=center;verticalAlign=middle;resizable=0;points=[];autosize=1;strokeColor=none;fillColor=none;" parent="1" vertex="1">
                    <mxGeometry x="241" y="823" width="62" height="32" as="geometry"/>
                </mxCell>
                <mxCell id="28xpgW_beIzhv5y29o_W-64" value="time stamp" style="rounded=0;whiteSpace=wrap;html=1;shadow=0;glass=0;sketch=1;strokeWidth=1;" parent="1" vertex="1">
                    <mxGeometry x="-148" y="908" width="344" height="34" as="geometry"/>
                </mxCell>
                <mxCell id="28xpgW_beIzhv5y29o_W-65" value="Topic - (table in DB) - partition + offset values" style="rounded=0;whiteSpace=wrap;html=1;shadow=0;glass=0;sketch=1;strokeWidth=1;fillColor=#fff2cc;strokeColor=#d6b656;" parent="1" vertex="1">
                    <mxGeometry x="-144.5" y="953" width="344" height="34" as="geometry"/>
                </mxCell>
                <mxCell id="28xpgW_beIzhv5y29o_W-69" value="" style="shape=mxgraph.signs.transportation.truck_2;html=1;pointerEvents=1;fillColor=#000000;strokeColor=none;verticalLabelPosition=bottom;verticalAlign=top;align=center;shadow=0;glass=0;sketch=0;" parent="1" vertex="1">
                    <mxGeometry x="-176" y="113" width="52" height="33" as="geometry"/>
                </mxCell>
                <mxCell id="28xpgW_beIzhv5y29o_W-70" value="lat, lon" style="text;html=1;align=center;verticalAlign=middle;resizable=0;points=[];autosize=1;strokeColor=none;fillColor=none;" parent="1" vertex="1">
                    <mxGeometry x="-165" y="95" width="46" height="18" as="geometry"/>
                </mxCell>
                <mxCell id="28xpgW_beIzhv5y29o_W-74" style="edgeStyle=none;rounded=0;sketch=1;orthogonalLoop=1;jettySize=auto;html=1;entryX=0.176;entryY=0.006;entryDx=0;entryDy=0;entryPerimeter=0;" parent="1" source="28xpgW_beIzhv5y29o_W-71" target="28xpgW_beIzhv5y29o_W-40" edge="1">
                    <mxGeometry relative="1" as="geometry"/>
                </mxCell>
                <mxCell id="28xpgW_beIzhv5y29o_W-71" value="Kafka Producer - Program" style="text;html=1;strokeColor=none;fillColor=none;align=center;verticalAlign=middle;whiteSpace=wrap;rounded=0;shadow=0;glass=0;sketch=0;" parent="1" vertex="1">
                    <mxGeometry x="-85.5" y="212" width="60" height="30" as="geometry"/>
                </mxCell>
                <mxCell id="28xpgW_beIzhv5y29o_W-76" value="acks - 0,1, all(-1)" style="text;html=1;align=center;verticalAlign=middle;resizable=0;points=[];autosize=1;strokeColor=none;fillColor=none;" parent="1" vertex="1">
                    <mxGeometry x="264" y="294" width="100" height="18" as="geometry"/>
                </mxCell>
                <mxCell id="28xpgW_beIzhv5y29o_W-77" value="Leader&amp;nbsp;&lt;br&gt;Replica&amp;nbsp;" style="text;html=1;align=center;verticalAlign=middle;resizable=0;points=[];autosize=1;strokeColor=none;fillColor=none;" parent="1" vertex="1">
                    <mxGeometry x="316" y="259" width="54" height="32" as="geometry"/>
                </mxCell>
                <mxCell id="28xpgW_beIzhv5y29o_W-79" value="Jitendra" style="shape=umlActor;verticalLabelPosition=bottom;verticalAlign=top;html=1;outlineConnect=0;shadow=0;glass=0;sketch=0;strokeWidth=1;" parent="1" vertex="1">
                    <mxGeometry x="-143.75" y="485" width="30" height="60" as="geometry"/>
                </mxCell>
                <mxCell id="28xpgW_beIzhv5y29o_W-80" value="" style="shape=mxgraph.signs.transportation.truck_2;html=1;pointerEvents=1;fillColor=#000000;strokeColor=none;verticalLabelPosition=bottom;verticalAlign=top;align=center;shadow=0;glass=0;sketch=0;" parent="1" vertex="1">
                    <mxGeometry x="-55" y="113" width="52" height="33" as="geometry"/>
                </mxCell>
                <mxCell id="28xpgW_beIzhv5y29o_W-81" value="lat, lon" style="text;html=1;align=center;verticalAlign=middle;resizable=0;points=[];autosize=1;strokeColor=none;fillColor=none;" parent="1" vertex="1">
                    <mxGeometry x="-44" y="95" width="46" height="18" as="geometry"/>
                </mxCell>
                <mxCell id="28xpgW_beIzhv5y29o_W-82" value="" style="shape=mxgraph.signs.transportation.truck_2;html=1;pointerEvents=1;fillColor=#000000;strokeColor=none;verticalLabelPosition=bottom;verticalAlign=top;align=center;shadow=0;glass=0;sketch=0;" parent="1" vertex="1">
                    <mxGeometry x="52" y="113" width="52" height="33" as="geometry"/>
                </mxCell>
                <mxCell id="28xpgW_beIzhv5y29o_W-83" value="lat, lon" style="text;html=1;align=center;verticalAlign=middle;resizable=0;points=[];autosize=1;strokeColor=none;fillColor=none;" parent="1" vertex="1">
                    <mxGeometry x="63" y="95" width="46" height="18" as="geometry"/>
                </mxCell>
                <mxCell id="28xpgW_beIzhv5y29o_W-86" value="" style="html=1;verticalLabelPosition=bottom;align=center;labelBackgroundColor=#ffffff;verticalAlign=top;strokeWidth=2;strokeColor=#0080F0;shadow=0;dashed=0;shape=mxgraph.ios7.icons.smartphone;glass=0;sketch=0;" parent="1" vertex="1">
                    <mxGeometry x="-91" y="485" width="30" height="52" as="geometry"/>
                </mxCell>
                <mxCell id="28xpgW_beIzhv5y29o_W-90" value="" style="rounded=0;whiteSpace=wrap;html=1;shadow=0;glass=0;sketch=0;strokeWidth=1;" parent="1" vertex="1">
                    <mxGeometry x="-133" y="1232" width="114" height="210" as="geometry"/>
                </mxCell>
                <mxCell id="28xpgW_beIzhv5y29o_W-96" value="topic - first-topic" style="text;html=1;align=center;verticalAlign=middle;resizable=0;points=[];autosize=1;strokeColor=none;fillColor=none;" parent="1" vertex="1">
                    <mxGeometry x="-127" y="1208" width="95" height="18" as="geometry"/>
                </mxCell>
                <mxCell id="28xpgW_beIzhv5y29o_W-98" style="edgeStyle=none;rounded=0;sketch=1;orthogonalLoop=1;jettySize=auto;html=1;" parent="1" source="28xpgW_beIzhv5y29o_W-97" target="28xpgW_beIzhv5y29o_W-90" edge="1">
                    <mxGeometry relative="1" as="geometry"/>
                </mxCell>
                <mxCell id="28xpgW_beIzhv5y29o_W-145" style="edgeStyle=none;rounded=0;sketch=1;orthogonalLoop=1;jettySize=auto;html=1;" parent="1" source="28xpgW_beIzhv5y29o_W-97" edge="1">
                    <mxGeometry relative="1" as="geometry">
                        <mxPoint x="-281.66666666666663" y="1466.6666666666665" as="targetPoint"/>
                    </mxGeometry>
                </mxCell>
                <mxCell id="28xpgW_beIzhv5y29o_W-97" value="Kafka&lt;br&gt;Producer" style="text;html=1;strokeColor=none;fillColor=none;align=center;verticalAlign=middle;whiteSpace=wrap;rounded=0;shadow=0;glass=0;sketch=0;" parent="1" vertex="1">
                    <mxGeometry x="-325" y="1292" width="60" height="30" as="geometry"/>
                </mxCell>
                <mxCell id="28xpgW_beIzhv5y29o_W-99" value="T-1 Muralidhar&lt;br&gt;T-2 Suresh&lt;br&gt;T-3 Bhaskara&lt;br&gt;T-4 101:{Anshuman}" style="text;html=1;align=left;verticalAlign=middle;resizable=0;points=[];autosize=1;strokeColor=none;fillColor=none;" parent="1" vertex="1">
                    <mxGeometry x="-259" y="1329" width="120" height="60" as="geometry"/>
                </mxCell>
                <mxCell id="28xpgW_beIzhv5y29o_W-100" value="Muralidhar&lt;br&gt;Suresh&lt;br&gt;Bhaskara" style="text;html=1;align=center;verticalAlign=middle;resizable=0;points=[];autosize=1;strokeColor=none;fillColor=none;" parent="1" vertex="1">
                    <mxGeometry x="-110" y="1249" width="67" height="46" as="geometry"/>
                </mxCell>
                <mxCell id="28xpgW_beIzhv5y29o_W-103" style="edgeStyle=none;rounded=0;sketch=1;orthogonalLoop=1;jettySize=auto;html=1;entryX=1.011;entryY=0.759;entryDx=0;entryDy=0;entryPerimeter=0;" parent="1" source="28xpgW_beIzhv5y29o_W-102" target="28xpgW_beIzhv5y29o_W-96" edge="1">
                    <mxGeometry relative="1" as="geometry"/>
                </mxCell>
                <mxCell id="28xpgW_beIzhv5y29o_W-102" value="Kafka&amp;nbsp;&lt;br&gt;Consumer" style="text;html=1;strokeColor=none;fillColor=none;align=center;verticalAlign=middle;whiteSpace=wrap;rounded=0;shadow=0;glass=0;sketch=0;" parent="1" vertex="1">
                    <mxGeometry x="155" y="1275" width="60" height="30" as="geometry"/>
                </mxCell>
                <mxCell id="28xpgW_beIzhv5y29o_W-104" value="Muralidhar&lt;br&gt;Suresh&lt;br&gt;Bhaskara" style="text;html=1;align=center;verticalAlign=middle;resizable=0;points=[];autosize=1;strokeColor=none;fillColor=none;" parent="1" vertex="1">
                    <mxGeometry x="225" y="1281" width="67" height="46" as="geometry"/>
                </mxCell>
                <mxCell id="28xpgW_beIzhv5y29o_W-106" style="edgeStyle=none;rounded=0;sketch=1;orthogonalLoop=1;jettySize=auto;html=1;" parent="1" source="28xpgW_beIzhv5y29o_W-105" target="28xpgW_beIzhv5y29o_W-90" edge="1">
                    <mxGeometry relative="1" as="geometry"/>
                </mxCell>
                <mxCell id="28xpgW_beIzhv5y29o_W-105" value="Kafka&amp;nbsp;&lt;br&gt;Consumer" style="text;html=1;strokeColor=#d6b656;fillColor=#fff2cc;align=center;verticalAlign=middle;whiteSpace=wrap;rounded=0;shadow=0;glass=0;sketch=0;" parent="1" vertex="1">
                    <mxGeometry x="152" y="1356" width="60" height="30" as="geometry"/>
                </mxCell>
                <mxCell id="28xpgW_beIzhv5y29o_W-107" value="Bhaskara" style="text;html=1;align=center;verticalAlign=middle;resizable=0;points=[];autosize=1;strokeColor=none;fillColor=none;" parent="1" vertex="1">
                    <mxGeometry x="154.5" y="1391" width="61" height="18" as="geometry"/>
                </mxCell>
                <mxCell id="28xpgW_beIzhv5y29o_W-108" value="Kafka&amp;nbsp;&lt;br&gt;Consumer" style="text;html=1;strokeColor=#82b366;fillColor=#d5e8d4;align=center;verticalAlign=middle;whiteSpace=wrap;rounded=0;shadow=0;glass=0;sketch=0;" parent="1" vertex="1">
                    <mxGeometry x="126.5" y="1429" width="60" height="30" as="geometry"/>
                </mxCell>
                <mxCell id="28xpgW_beIzhv5y29o_W-109" value="--from-beginning" style="text;html=1;align=center;verticalAlign=middle;resizable=0;points=[];autosize=1;strokeColor=none;fillColor=none;" parent="1" vertex="1">
                    <mxGeometry x="176" y="1467" width="98" height="18" as="geometry"/>
                </mxCell>
                <mxCell id="28xpgW_beIzhv5y29o_W-110" value="Muralidhar&lt;br&gt;Suresh&lt;br&gt;Bhaskara" style="text;html=1;align=center;verticalAlign=middle;resizable=0;points=[];autosize=1;strokeColor=none;fillColor=none;" parent="1" vertex="1">
                    <mxGeometry x="109" y="1472" width="67" height="46" as="geometry"/>
                </mxCell>
                <mxCell id="28xpgW_beIzhv5y29o_W-111" value="M" style="rounded=0;whiteSpace=wrap;html=1;shadow=0;glass=0;sketch=0;strokeWidth=1;" parent="1" vertex="1">
                    <mxGeometry x="-253" y="1491" width="33" height="25" as="geometry"/>
                </mxCell>
                <mxCell id="28xpgW_beIzhv5y29o_W-112" value="K" style="rounded=0;whiteSpace=wrap;html=1;shadow=0;glass=0;sketch=0;strokeWidth=1;" parent="1" vertex="1">
                    <mxGeometry x="-215" y="1491" width="33" height="25" as="geometry"/>
                </mxCell>
                <mxCell id="28xpgW_beIzhv5y29o_W-113" value="P" style="rounded=0;whiteSpace=wrap;html=1;shadow=0;glass=0;sketch=0;strokeWidth=1;" parent="1" vertex="1">
                    <mxGeometry x="-177.5" y="1491" width="33" height="25" as="geometry"/>
                </mxCell>
                <mxCell id="28xpgW_beIzhv5y29o_W-114" value="" style="rounded=0;whiteSpace=wrap;html=1;shadow=0;glass=0;sketch=0;strokeWidth=1;fillColor=#f8cecc;strokeColor=#b85450;" parent="1" vertex="1">
                    <mxGeometry x="-139" y="1491" width="33" height="25" as="geometry"/>
                </mxCell>
                <mxCell id="28xpgW_beIzhv5y29o_W-154" value="" style="edgeStyle=none;rounded=0;sketch=1;orthogonalLoop=1;jettySize=auto;html=1;" parent="1" source="28xpgW_beIzhv5y29o_W-116" target="28xpgW_beIzhv5y29o_W-120" edge="1">
                    <mxGeometry relative="1" as="geometry"/>
                </mxCell>
                <mxCell id="28xpgW_beIzhv5y29o_W-116" value="S" style="rounded=0;whiteSpace=wrap;html=1;shadow=0;glass=0;sketch=0;strokeWidth=1;" parent="1" vertex="1">
                    <mxGeometry x="-252.75" y="1533" width="33" height="25" as="geometry"/>
                </mxCell>
                <mxCell id="28xpgW_beIzhv5y29o_W-118" value="" style="rounded=0;whiteSpace=wrap;html=1;shadow=0;glass=0;sketch=0;strokeWidth=1;fillColor=#f8cecc;strokeColor=#b85450;" parent="1" vertex="1">
                    <mxGeometry x="-210.5" y="1533" width="33" height="25" as="geometry"/>
                </mxCell>
                <mxCell id="28xpgW_beIzhv5y29o_W-119" value="B" style="rounded=0;whiteSpace=wrap;html=1;shadow=0;glass=0;sketch=0;strokeWidth=1;" parent="1" vertex="1">
                    <mxGeometry x="-253" y="1574" width="33" height="25" as="geometry"/>
                </mxCell>
                <mxCell id="28xpgW_beIzhv5y29o_W-120" value="J" style="rounded=0;whiteSpace=wrap;html=1;shadow=0;glass=0;sketch=0;strokeWidth=1;" parent="1" vertex="1">
                    <mxGeometry x="-215" y="1574" width="33" height="25" as="geometry"/>
                </mxCell>
                <mxCell id="28xpgW_beIzhv5y29o_W-121" value="S" style="rounded=0;whiteSpace=wrap;html=1;shadow=0;glass=0;sketch=0;strokeWidth=1;" parent="1" vertex="1">
                    <mxGeometry x="-177.5" y="1574" width="33" height="25" as="geometry"/>
                </mxCell>
                <mxCell id="28xpgW_beIzhv5y29o_W-122" value="" style="rounded=0;whiteSpace=wrap;html=1;shadow=0;glass=0;sketch=0;strokeWidth=1;fillColor=#f8cecc;strokeColor=#b85450;" parent="1" vertex="1">
                    <mxGeometry x="-139" y="1574" width="33" height="25" as="geometry"/>
                </mxCell>
                <mxCell id="28xpgW_beIzhv5y29o_W-123" value="P0" style="text;html=1;align=center;verticalAlign=middle;resizable=0;points=[];autosize=1;strokeColor=none;fillColor=none;" parent="1" vertex="1">
                    <mxGeometry x="-305" y="1491" width="25" height="18" as="geometry"/>
                </mxCell>
                <mxCell id="28xpgW_beIzhv5y29o_W-124" value="P1" style="text;html=1;align=center;verticalAlign=middle;resizable=0;points=[];autosize=1;strokeColor=none;fillColor=none;" parent="1" vertex="1">
                    <mxGeometry x="-305" y="1536.5" width="25" height="18" as="geometry"/>
                </mxCell>
                <mxCell id="28xpgW_beIzhv5y29o_W-125" value="P2" style="text;html=1;align=center;verticalAlign=middle;resizable=0;points=[];autosize=1;strokeColor=none;fillColor=none;" parent="1" vertex="1">
                    <mxGeometry x="-305" y="1577.5" width="25" height="18" as="geometry"/>
                </mxCell>
                <mxCell id="28xpgW_beIzhv5y29o_W-126" value="first-topic" style="text;html=1;align=center;verticalAlign=middle;resizable=0;points=[];autosize=1;strokeColor=none;fillColor=none;" parent="1" vertex="1">
                    <mxGeometry x="-266" y="1454" width="59" height="18" as="geometry"/>
                </mxCell>
                <mxCell id="28xpgW_beIzhv5y29o_W-143" style="edgeStyle=none;rounded=0;sketch=1;orthogonalLoop=1;jettySize=auto;html=1;" parent="1" source="28xpgW_beIzhv5y29o_W-127" target="28xpgW_beIzhv5y29o_W-142" edge="1">
                    <mxGeometry relative="1" as="geometry"/>
                </mxCell>
                <mxCell id="28xpgW_beIzhv5y29o_W-127" value="" style="rounded=0;whiteSpace=wrap;html=1;shadow=0;glass=0;sketch=0;strokeWidth=1;" parent="1" vertex="1">
                    <mxGeometry x="-119" y="1722" width="56" height="148" as="geometry"/>
                </mxCell>
                <mxCell id="28xpgW_beIzhv5y29o_W-128" value="&lt;span&gt;Kafka- 1 broker&lt;/span&gt;" style="text;html=1;align=center;verticalAlign=middle;resizable=0;points=[];autosize=1;strokeColor=none;fillColor=none;" parent="1" vertex="1">
                    <mxGeometry x="-159" y="1697" width="92" height="18" as="geometry"/>
                </mxCell>
                <mxCell id="28xpgW_beIzhv5y29o_W-129" value="Topic" style="rounded=0;whiteSpace=wrap;html=1;shadow=0;glass=0;sketch=0;strokeWidth=1;" parent="1" vertex="1">
                    <mxGeometry x="-109" y="1732" width="35" height="25" as="geometry"/>
                </mxCell>
                <mxCell id="28xpgW_beIzhv5y29o_W-130" value="Topic" style="rounded=0;whiteSpace=wrap;html=1;shadow=0;glass=0;sketch=0;strokeWidth=1;" parent="1" vertex="1">
                    <mxGeometry x="-109" y="1769" width="35" height="25" as="geometry"/>
                </mxCell>
                <mxCell id="28xpgW_beIzhv5y29o_W-131" value="Topic" style="rounded=0;whiteSpace=wrap;html=1;shadow=0;glass=0;sketch=0;strokeWidth=1;" parent="1" vertex="1">
                    <mxGeometry x="-109" y="1799.5" width="35" height="25" as="geometry"/>
                </mxCell>
                <mxCell id="28xpgW_beIzhv5y29o_W-132" value="Topic" style="rounded=0;whiteSpace=wrap;html=1;shadow=0;glass=0;sketch=0;strokeWidth=1;" parent="1" vertex="1">
                    <mxGeometry x="-109" y="1836.5" width="35" height="25" as="geometry"/>
                </mxCell>
                <mxCell id="28xpgW_beIzhv5y29o_W-144" style="edgeStyle=none;rounded=0;sketch=1;orthogonalLoop=1;jettySize=auto;html=1;" parent="1" source="28xpgW_beIzhv5y29o_W-133" target="28xpgW_beIzhv5y29o_W-142" edge="1">
                    <mxGeometry relative="1" as="geometry"/>
                </mxCell>
                <mxCell id="28xpgW_beIzhv5y29o_W-133" value="" style="rounded=0;whiteSpace=wrap;html=1;shadow=0;glass=0;sketch=0;strokeWidth=1;" parent="1" vertex="1">
                    <mxGeometry x="23" y="1802" width="56" height="148" as="geometry"/>
                </mxCell>
                <mxCell id="28xpgW_beIzhv5y29o_W-134" value="&lt;span&gt;Kafka&lt;/span&gt;" style="text;html=1;align=center;verticalAlign=middle;resizable=0;points=[];autosize=1;strokeColor=none;fillColor=none;" parent="1" vertex="1">
                    <mxGeometry x="8" y="1777" width="41" height="18" as="geometry"/>
                </mxCell>
                <mxCell id="28xpgW_beIzhv5y29o_W-135" value="Topic" style="rounded=0;whiteSpace=wrap;html=1;shadow=0;glass=0;sketch=0;strokeWidth=1;" parent="1" vertex="1">
                    <mxGeometry x="33" y="1812" width="35" height="25" as="geometry"/>
                </mxCell>
                <mxCell id="28xpgW_beIzhv5y29o_W-136" value="Topic" style="rounded=0;whiteSpace=wrap;html=1;shadow=0;glass=0;sketch=0;strokeWidth=1;" parent="1" vertex="1">
                    <mxGeometry x="33" y="1849" width="35" height="25" as="geometry"/>
                </mxCell>
                <mxCell id="28xpgW_beIzhv5y29o_W-137" value="Topic" style="rounded=0;whiteSpace=wrap;html=1;shadow=0;glass=0;sketch=0;strokeWidth=1;" parent="1" vertex="1">
                    <mxGeometry x="33" y="1879.5" width="35" height="25" as="geometry"/>
                </mxCell>
                <mxCell id="28xpgW_beIzhv5y29o_W-138" value="Topic" style="rounded=0;whiteSpace=wrap;html=1;shadow=0;glass=0;sketch=0;strokeWidth=1;" parent="1" vertex="1">
                    <mxGeometry x="33" y="1916.5" width="35" height="25" as="geometry"/>
                </mxCell>
                <mxCell id="28xpgW_beIzhv5y29o_W-139" value="Ind" style="text;html=1;align=center;verticalAlign=middle;resizable=0;points=[];autosize=1;strokeColor=none;fillColor=none;" parent="1" vertex="1">
                    <mxGeometry x="-124" y="1664" width="27" height="18" as="geometry"/>
                </mxCell>
                <mxCell id="28xpgW_beIzhv5y29o_W-140" value="Ger" style="text;html=1;align=center;verticalAlign=middle;resizable=0;points=[];autosize=1;strokeColor=none;fillColor=none;" parent="1" vertex="1">
                    <mxGeometry x="31.75" y="1752" width="30" height="18" as="geometry"/>
                </mxCell>
                <mxCell id="28xpgW_beIzhv5y29o_W-142" value="ZooKeeper" style="rounded=0;whiteSpace=wrap;html=1;shadow=0;glass=0;sketch=0;strokeWidth=1;" parent="1" vertex="1">
                    <mxGeometry x="-263" y="1931" width="74.5" height="40" as="geometry"/>
                </mxCell>
                <mxCell id="28xpgW_beIzhv5y29o_W-146" value="Kafka&amp;nbsp;&lt;br&gt;Consumer" style="text;html=1;strokeColor=#82b366;fillColor=#d5e8d4;align=center;verticalAlign=middle;whiteSpace=wrap;rounded=0;shadow=0;glass=0;sketch=0;" parent="1" vertex="1">
                    <mxGeometry x="56" y="1534" width="60" height="30" as="geometry"/>
                </mxCell>
                <mxCell id="28xpgW_beIzhv5y29o_W-147" value="will be unordered" style="text;html=1;align=center;verticalAlign=middle;resizable=0;points=[];autosize=1;strokeColor=none;fillColor=none;" parent="1" vertex="1">
                    <mxGeometry x="149.5" y="1540" width="102" height="18" as="geometry"/>
                </mxCell>
                <mxCell id="28xpgW_beIzhv5y29o_W-148" value="0" style="text;html=1;align=center;verticalAlign=middle;resizable=0;points=[];autosize=1;strokeColor=none;fillColor=none;" parent="1" vertex="1">
                    <mxGeometry x="-253" y="1469" width="17" height="18" as="geometry"/>
                </mxCell>
                <mxCell id="28xpgW_beIzhv5y29o_W-149" value="1" style="text;html=1;align=center;verticalAlign=middle;resizable=0;points=[];autosize=1;strokeColor=none;fillColor=none;" parent="1" vertex="1">
                    <mxGeometry x="-208" y="1470" width="17" height="18" as="geometry"/>
                </mxCell>
                <mxCell id="28xpgW_beIzhv5y29o_W-150" value="2" style="text;html=1;align=center;verticalAlign=middle;resizable=0;points=[];autosize=1;strokeColor=none;fillColor=none;" parent="1" vertex="1">
                    <mxGeometry x="-171" y="1468" width="17" height="18" as="geometry"/>
                </mxCell>
                <mxCell id="28xpgW_beIzhv5y29o_W-151" value="3" style="text;html=1;align=center;verticalAlign=middle;resizable=0;points=[];autosize=1;strokeColor=none;fillColor=none;" parent="1" vertex="1">
                    <mxGeometry x="-133" y="1468" width="17" height="18" as="geometry"/>
                </mxCell>
                <mxCell id="28xpgW_beIzhv5y29o_W-152" value="kafka-consumer-groups&lt;br&gt;P1, P2" style="text;html=1;align=center;verticalAlign=middle;resizable=0;points=[];autosize=1;strokeColor=none;fillColor=none;" parent="1" vertex="1">
                    <mxGeometry x="-3" y="1598" width="136" height="32" as="geometry"/>
                </mxCell>
                <mxCell id="28xpgW_beIzhv5y29o_W-153" value="kafka-consumer-groups&lt;br&gt;P1, P0" style="text;html=1;align=center;verticalAlign=middle;resizable=0;points=[];autosize=1;strokeColor=none;fillColor=none;" parent="1" vertex="1">
                    <mxGeometry x="56.5" y="1642" width="136" height="32" as="geometry"/>
                </mxCell>
                <mxCell id="28xpgW_beIzhv5y29o_W-203" style="edgeStyle=none;rounded=0;sketch=1;orthogonalLoop=1;jettySize=auto;html=1;entryX=0.116;entryY=0;entryDx=0;entryDy=0;entryPerimeter=0;" parent="1" source="28xpgW_beIzhv5y29o_W-155" target="28xpgW_beIzhv5y29o_W-205" edge="1">
                    <mxGeometry relative="1" as="geometry">
                        <mxPoint x="-157" y="2124" as="targetPoint"/>
                    </mxGeometry>
                </mxCell>
                <mxCell id="28xpgW_beIzhv5y29o_W-204" value="text" style="edgeLabel;html=1;align=center;verticalAlign=middle;resizable=0;points=[];" parent="28xpgW_beIzhv5y29o_W-203" vertex="1" connectable="0">
                    <mxGeometry x="-0.364" y="1" relative="1" as="geometry">
                        <mxPoint y="-1" as="offset"/>
                    </mxGeometry>
                </mxCell>
                <mxCell id="28xpgW_beIzhv5y29o_W-155" value="" style="shape=mxgraph.signs.food.food_truck;html=1;pointerEvents=1;fillColor=#f8cecc;strokeColor=#b85450;verticalLabelPosition=bottom;verticalAlign=top;align=center;shadow=0;glass=0;sketch=0;" parent="1" vertex="1">
                    <mxGeometry x="-269" y="2052" width="41" height="23" as="geometry"/>
                </mxCell>
                <mxCell id="28xpgW_beIzhv5y29o_W-156" value="" style="shape=mxgraph.signs.food.food_truck;html=1;pointerEvents=1;fillColor=#000000;strokeColor=none;verticalLabelPosition=bottom;verticalAlign=top;align=center;shadow=0;glass=0;sketch=0;" parent="1" vertex="1">
                    <mxGeometry x="-269" y="2098" width="41" height="23" as="geometry"/>
                </mxCell>
                <mxCell id="28xpgW_beIzhv5y29o_W-157" value="" style="shape=mxgraph.signs.food.food_truck;html=1;pointerEvents=1;fillColor=#ffe6cc;strokeColor=#d79b00;verticalLabelPosition=bottom;verticalAlign=top;align=center;shadow=0;glass=0;sketch=0;" parent="1" vertex="1">
                    <mxGeometry x="-269" y="2144" width="41" height="23" as="geometry"/>
                </mxCell>
                <mxCell id="28xpgW_beIzhv5y29o_W-158" value="" style="shape=mxgraph.signs.food.food_truck;html=1;pointerEvents=1;fillColor=#dae8fc;strokeColor=#6c8ebf;verticalLabelPosition=bottom;verticalAlign=top;align=center;shadow=0;glass=0;sketch=0;" parent="1" vertex="1">
                    <mxGeometry x="-269" y="2183" width="41" height="23" as="geometry"/>
                </mxCell>
                <mxCell id="28xpgW_beIzhv5y29o_W-159" value="" style="shape=mxgraph.signs.food.food_truck;html=1;pointerEvents=1;fillColor=#d5e8d4;strokeColor=#82b366;verticalLabelPosition=bottom;verticalAlign=top;align=center;shadow=0;glass=0;sketch=0;" parent="1" vertex="1">
                    <mxGeometry x="-269" y="2229" width="41" height="23" as="geometry"/>
                </mxCell>
                <mxCell id="28xpgW_beIzhv5y29o_W-160" value="" style="shape=mxgraph.signs.food.food_truck;html=1;pointerEvents=1;fillColor=#000000;strokeColor=none;verticalLabelPosition=bottom;verticalAlign=top;align=center;shadow=0;glass=0;sketch=0;" parent="1" vertex="1">
                    <mxGeometry x="-269" y="2275" width="41" height="23" as="geometry"/>
                </mxCell>
                <mxCell id="28xpgW_beIzhv5y29o_W-162" value="ELK-EFK" style="strokeWidth=1;shadow=0;dashed=0;align=center;html=1;shape=mxgraph.mockup.containers.browserWindow;rSize=0;strokeColor=#666666;strokeColor2=#008cff;strokeColor3=#c4c4c4;mainText=,;recursiveResize=0;glass=0;sketch=0;" parent="1" vertex="1">
                    <mxGeometry x="36" y="2028" width="320" height="201" as="geometry"/>
                </mxCell>
                <mxCell id="28xpgW_beIzhv5y29o_W-163" value="Page 1" style="strokeWidth=1;shadow=0;dashed=0;align=center;html=1;shape=mxgraph.mockup.containers.anchor;fontSize=17;fontColor=#666666;align=left;glass=0;sketch=0;" parent="28xpgW_beIzhv5y29o_W-162" vertex="1">
                    <mxGeometry x="60" y="12" width="110" height="26" as="geometry"/>
                </mxCell>
                <mxCell id="28xpgW_beIzhv5y29o_W-164" value="https://www.draw.io" style="strokeWidth=1;shadow=0;dashed=0;align=center;html=1;shape=mxgraph.mockup.containers.anchor;rSize=0;fontSize=17;fontColor=#666666;align=left;glass=0;sketch=0;" parent="28xpgW_beIzhv5y29o_W-162" vertex="1">
                    <mxGeometry x="130" y="60" width="250" height="26" as="geometry"/>
                </mxCell>
                <mxCell id="28xpgW_beIzhv5y29o_W-205" value="text -&amp;gt; msg" style="rounded=0;whiteSpace=wrap;html=1;shadow=0;glass=0;sketch=0;strokeWidth=1;" parent="1" vertex="1">
                    <mxGeometry x="-181.5" y="2102" width="65.5" height="39" as="geometry"/>
                </mxCell>
                <mxCell id="28xpgW_beIzhv5y29o_W-215" style="edgeStyle=none;rounded=0;sketch=1;orthogonalLoop=1;jettySize=auto;html=1;entryX=0.003;entryY=0.167;entryDx=0;entryDy=0;entryPerimeter=0;" parent="1" source="28xpgW_beIzhv5y29o_W-206" target="28xpgW_beIzhv5y29o_W-212" edge="1">
                    <mxGeometry relative="1" as="geometry"/>
                </mxCell>
                <mxCell id="28xpgW_beIzhv5y29o_W-206" value="KAFKA" style="rounded=0;whiteSpace=wrap;html=1;shadow=0;glass=0;sketch=0;strokeWidth=1;" parent="1" vertex="1">
                    <mxGeometry x="-50.25" y="2167" width="65.5" height="39" as="geometry"/>
                </mxCell>
                <mxCell id="28xpgW_beIzhv5y29o_W-213" style="edgeStyle=none;rounded=0;sketch=1;orthogonalLoop=1;jettySize=auto;html=1;entryX=0.341;entryY=0.995;entryDx=0;entryDy=0;entryPerimeter=0;" parent="1" source="28xpgW_beIzhv5y29o_W-212" target="28xpgW_beIzhv5y29o_W-162" edge="1">
                    <mxGeometry relative="1" as="geometry"/>
                </mxCell>
                <mxCell id="28xpgW_beIzhv5y29o_W-212" value="KFAKA-CONSUMER-GROUP - partitions" style="text;html=1;align=center;verticalAlign=middle;resizable=0;points=[];autosize=1;strokeColor=none;fillColor=none;" parent="1" vertex="1">
                    <mxGeometry x="11" y="2288" width="230" height="18" as="geometry"/>
                </mxCell>
                <mxCell id="28xpgW_beIzhv5y29o_W-217" value="M" style="rounded=0;whiteSpace=wrap;html=1;shadow=0;glass=0;sketch=0;strokeWidth=1;" parent="1" vertex="1">
                    <mxGeometry x="-225.5" y="2406" width="33" height="25" as="geometry"/>
                </mxCell>
                <mxCell id="28xpgW_beIzhv5y29o_W-218" value="K" style="rounded=0;whiteSpace=wrap;html=1;shadow=0;glass=0;sketch=0;strokeWidth=1;" parent="1" vertex="1">
                    <mxGeometry x="-187.5" y="2406" width="33" height="25" as="geometry"/>
                </mxCell>
                <mxCell id="28xpgW_beIzhv5y29o_W-219" value="P" style="rounded=0;whiteSpace=wrap;html=1;shadow=0;glass=0;sketch=0;strokeWidth=1;" parent="1" vertex="1">
                    <mxGeometry x="-150" y="2406" width="33" height="25" as="geometry"/>
                </mxCell>
                <mxCell id="28xpgW_beIzhv5y29o_W-220" value="" style="rounded=0;whiteSpace=wrap;html=1;shadow=0;glass=0;sketch=0;strokeWidth=1;fillColor=#f8cecc;strokeColor=#b85450;" parent="1" vertex="1">
                    <mxGeometry x="-111.5" y="2406" width="33" height="25" as="geometry"/>
                </mxCell>
                <mxCell id="28xpgW_beIzhv5y29o_W-222" value="S" style="rounded=0;whiteSpace=wrap;html=1;shadow=0;glass=0;sketch=0;strokeWidth=1;" parent="1" vertex="1">
                    <mxGeometry x="-225.25" y="2448" width="33" height="25" as="geometry"/>
                </mxCell>
                <mxCell id="28xpgW_beIzhv5y29o_W-223" value="" style="rounded=0;whiteSpace=wrap;html=1;shadow=0;glass=0;sketch=0;strokeWidth=1;fillColor=#f8cecc;strokeColor=#b85450;" parent="1" vertex="1">
                    <mxGeometry x="-183" y="2448" width="33" height="25" as="geometry"/>
                </mxCell>
                <mxCell id="28xpgW_beIzhv5y29o_W-224" value="B" style="rounded=0;whiteSpace=wrap;html=1;shadow=0;glass=0;sketch=0;strokeWidth=1;" parent="1" vertex="1">
                    <mxGeometry x="-225.5" y="2489" width="33" height="25" as="geometry"/>
                </mxCell>
                <mxCell id="28xpgW_beIzhv5y29o_W-225" value="J" style="rounded=0;whiteSpace=wrap;html=1;shadow=0;glass=0;sketch=0;strokeWidth=1;" parent="1" vertex="1">
                    <mxGeometry x="-187.5" y="2489" width="33" height="25" as="geometry"/>
                </mxCell>
                <mxCell id="28xpgW_beIzhv5y29o_W-226" value="S" style="rounded=0;whiteSpace=wrap;html=1;shadow=0;glass=0;sketch=0;strokeWidth=1;" parent="1" vertex="1">
                    <mxGeometry x="-150" y="2489" width="33" height="25" as="geometry"/>
                </mxCell>
                <mxCell id="28xpgW_beIzhv5y29o_W-227" value="" style="rounded=0;whiteSpace=wrap;html=1;shadow=0;glass=0;sketch=0;strokeWidth=1;fillColor=#f8cecc;strokeColor=#b85450;" parent="1" vertex="1">
                    <mxGeometry x="-111.5" y="2489" width="33" height="25" as="geometry"/>
                </mxCell>
                <mxCell id="28xpgW_beIzhv5y29o_W-228" value="P0" style="text;html=1;align=center;verticalAlign=middle;resizable=0;points=[];autosize=1;strokeColor=none;fillColor=none;" parent="1" vertex="1">
                    <mxGeometry x="-277.5" y="2406" width="25" height="18" as="geometry"/>
                </mxCell>
                <mxCell id="28xpgW_beIzhv5y29o_W-229" value="P1" style="text;html=1;align=center;verticalAlign=middle;resizable=0;points=[];autosize=1;strokeColor=none;fillColor=none;" parent="1" vertex="1">
                    <mxGeometry x="-277.5" y="2451.5" width="25" height="18" as="geometry"/>
                </mxCell>
                <mxCell id="28xpgW_beIzhv5y29o_W-230" value="P2" style="text;html=1;align=center;verticalAlign=middle;resizable=0;points=[];autosize=1;strokeColor=none;fillColor=none;" parent="1" vertex="1">
                    <mxGeometry x="-277.5" y="2492.5" width="25" height="18" as="geometry"/>
                </mxCell>
                <mxCell id="28xpgW_beIzhv5y29o_W-231" value="0" style="text;html=1;align=center;verticalAlign=middle;resizable=0;points=[];autosize=1;strokeColor=none;fillColor=none;" parent="1" vertex="1">
                    <mxGeometry x="-225.5" y="2384" width="17" height="18" as="geometry"/>
                </mxCell>
                <mxCell id="28xpgW_beIzhv5y29o_W-232" value="1" style="text;html=1;align=center;verticalAlign=middle;resizable=0;points=[];autosize=1;strokeColor=none;fillColor=none;" parent="1" vertex="1">
                    <mxGeometry x="-180.5" y="2385" width="17" height="18" as="geometry"/>
                </mxCell>
                <mxCell id="28xpgW_beIzhv5y29o_W-233" value="2" style="text;html=1;align=center;verticalAlign=middle;resizable=0;points=[];autosize=1;strokeColor=none;fillColor=none;" parent="1" vertex="1">
                    <mxGeometry x="-143.5" y="2383" width="17" height="18" as="geometry"/>
                </mxCell>
                <mxCell id="28xpgW_beIzhv5y29o_W-234" value="3" style="text;html=1;align=center;verticalAlign=middle;resizable=0;points=[];autosize=1;strokeColor=none;fillColor=none;" parent="1" vertex="1">
                    <mxGeometry x="-105.5" y="2383" width="17" height="18" as="geometry"/>
                </mxCell>
                <mxCell id="28xpgW_beIzhv5y29o_W-236" style="edgeStyle=none;rounded=0;sketch=1;orthogonalLoop=1;jettySize=auto;html=1;" parent="1" source="28xpgW_beIzhv5y29o_W-235" edge="1">
                    <mxGeometry relative="1" as="geometry">
                        <mxPoint x="51" y="2395.6666666666665" as="targetPoint"/>
                    </mxGeometry>
                </mxCell>
                <mxCell id="28xpgW_beIzhv5y29o_W-235" value="consumer" style="rounded=0;whiteSpace=wrap;html=1;shadow=0;glass=0;sketch=0;strokeWidth=1;fillColor=#ffe6cc;strokeColor=#d79b00;" parent="1" vertex="1">
                    <mxGeometry x="113" y="2370" width="63" height="18" as="geometry"/>
                </mxCell>
                <mxCell id="28xpgW_beIzhv5y29o_W-237" value="consumer&lt;br&gt;g1" style="rounded=0;whiteSpace=wrap;html=1;shadow=0;glass=0;sketch=0;strokeWidth=1;" parent="1" vertex="1">
                    <mxGeometry x="111" y="2413" width="63" height="35" as="geometry"/>
                </mxCell>
                <mxCell id="28xpgW_beIzhv5y29o_W-239" value="consumer&lt;br&gt;g2" style="rounded=0;whiteSpace=wrap;html=1;shadow=0;glass=0;sketch=0;strokeWidth=1;" parent="1" vertex="1">
                    <mxGeometry x="111" y="2469.5" width="63" height="35" as="geometry"/>
                </mxCell>
                <mxCell id="28xpgW_beIzhv5y29o_W-240" value="" style="rounded=0;whiteSpace=wrap;html=1;shadow=0;glass=0;sketch=0;strokeWidth=1;" parent="1" vertex="1">
                    <mxGeometry x="-180.5" y="2698" width="117.75" height="132" as="geometry"/>
                </mxCell>
                <mxCell id="28xpgW_beIzhv5y29o_W-241" value="Leader&lt;br&gt;RW" style="rounded=0;whiteSpace=wrap;html=1;shadow=0;glass=0;sketch=0;strokeWidth=1;" parent="1" vertex="1">
                    <mxGeometry x="-166.5" y="2709" width="88" height="42" as="geometry"/>
                </mxCell>
                <mxCell id="28xpgW_beIzhv5y29o_W-242" value="" style="verticalLabelPosition=bottom;verticalAlign=top;html=1;shape=mxgraph.basic.6_point_star;shadow=0;glass=0;sketch=0;strokeWidth=1;fillColor=#ffe6cc;strokeColor=#d79b00;" parent="1" vertex="1">
                    <mxGeometry x="-173.5" y="2701" width="22" height="21" as="geometry"/>
                </mxCell>
                <mxCell id="28xpgW_beIzhv5y29o_W-243" value="R1-RO" style="rounded=0;whiteSpace=wrap;html=1;shadow=0;glass=0;sketch=0;strokeWidth=1;" parent="1" vertex="1">
                    <mxGeometry x="-11.5" y="2769" width="88" height="42" as="geometry"/>
                </mxCell>
            </root>
        </mxGraphModel>
    </diagram>
</mxfile>